<mxfile host="app.diagrams.net" modified="2022-11-13T13:24:56.211Z" agent="5.0 (Windows NT 10.0; Win64; x64) AppleWebKit/537.36 (KHTML, like Gecko) Chrome/107.0.0.0 Safari/537.36" version="20.5.3" etag="AXwsggWRH5mClElToE1r" type="github">
  <diagram id="5C9xEyi9yowk1DRdj79Q" name="Location">
    <mxGraphModel dx="1422" dy="794" grid="1" gridSize="10" guides="1" tooltips="1" connect="1" arrows="1" fold="1" page="1" pageScale="1" pageWidth="827" pageHeight="1169" math="0" shadow="0">
      <root>
        <mxCell id="0" />
        <mxCell id="1" parent="0" />
        <mxCell id="ckUw0a-HAKTWJUbl3o7x-1" value="" style="rounded=0;whiteSpace=wrap;html=1;fillColor=#eeeeee;strokeColor=#36393d;" vertex="1" parent="1">
          <mxGeometry x="40" y="140" width="80" height="940" as="geometry" />
        </mxCell>
        <mxCell id="ckUw0a-HAKTWJUbl3o7x-2" value="" style="rounded=0;whiteSpace=wrap;html=1;fillColor=#eeeeee;strokeColor=#36393d;" vertex="1" parent="1">
          <mxGeometry x="200" y="240" width="80" height="840" as="geometry" />
        </mxCell>
        <mxCell id="ckUw0a-HAKTWJUbl3o7x-3" value="" style="rounded=0;whiteSpace=wrap;html=1;fillColor=#eeeeee;strokeColor=#36393d;" vertex="1" parent="1">
          <mxGeometry x="40" y="80" width="480" height="60" as="geometry" />
        </mxCell>
        <mxCell id="ckUw0a-HAKTWJUbl3o7x-4" value="" style="rounded=0;whiteSpace=wrap;html=1;fillColor=#eeeeee;strokeColor=#36393d;" vertex="1" parent="1">
          <mxGeometry x="200" y="200" width="320" height="60" as="geometry" />
        </mxCell>
        <mxCell id="ckUw0a-HAKTWJUbl3o7x-5" value="" style="shape=dataStorage;whiteSpace=wrap;html=1;fixedSize=1;rotation=90;fillColor=#e1d5e7;strokeColor=#9673a6;" vertex="1" parent="1">
          <mxGeometry x="110" y="990" width="100" height="80" as="geometry" />
        </mxCell>
        <mxCell id="ckUw0a-HAKTWJUbl3o7x-55" value="" style="edgeStyle=orthogonalEdgeStyle;rounded=0;orthogonalLoop=1;jettySize=auto;html=1;" edge="1" parent="1" source="ckUw0a-HAKTWJUbl3o7x-6" target="ckUw0a-HAKTWJUbl3o7x-54">
          <mxGeometry relative="1" as="geometry" />
        </mxCell>
        <mxCell id="ckUw0a-HAKTWJUbl3o7x-6" value="" style="rhombus;whiteSpace=wrap;html=1;fillColor=#f8cecc;strokeColor=#b85450;" vertex="1" parent="1">
          <mxGeometry x="120" y="270" width="80" height="80" as="geometry" />
        </mxCell>
        <mxCell id="ckUw0a-HAKTWJUbl3o7x-7" value="" style="rhombus;whiteSpace=wrap;html=1;fillColor=#f8cecc;strokeColor=#b85450;" vertex="1" parent="1">
          <mxGeometry x="540" y="70" width="80" height="80" as="geometry" />
        </mxCell>
        <mxCell id="ckUw0a-HAKTWJUbl3o7x-28" value="" style="edgeStyle=orthogonalEdgeStyle;rounded=0;orthogonalLoop=1;jettySize=auto;html=1;" edge="1" parent="1" source="ckUw0a-HAKTWJUbl3o7x-8" target="ckUw0a-HAKTWJUbl3o7x-19">
          <mxGeometry relative="1" as="geometry" />
        </mxCell>
        <mxCell id="ckUw0a-HAKTWJUbl3o7x-8" value="" style="rhombus;whiteSpace=wrap;html=1;fillColor=#f8cecc;strokeColor=#b85450;" vertex="1" parent="1">
          <mxGeometry x="540" y="190" width="80" height="80" as="geometry" />
        </mxCell>
        <mxCell id="ckUw0a-HAKTWJUbl3o7x-9" value="" style="whiteSpace=wrap;html=1;aspect=fixed;fillColor=#dae8fc;strokeColor=#6c8ebf;" vertex="1" parent="1">
          <mxGeometry x="660" y="245" width="150" height="150" as="geometry" />
        </mxCell>
        <mxCell id="ckUw0a-HAKTWJUbl3o7x-11" value="" style="shape=cube;whiteSpace=wrap;html=1;boundedLbl=1;backgroundOutline=1;darkOpacity=0.05;darkOpacity2=0.1;fillColor=#f9f7ed;strokeColor=#36393d;" vertex="1" parent="1">
          <mxGeometry x="510" y="370" width="140" height="100" as="geometry" />
        </mxCell>
        <mxCell id="ckUw0a-HAKTWJUbl3o7x-12" value="" style="shape=cube;whiteSpace=wrap;html=1;boundedLbl=1;backgroundOutline=1;darkOpacity=0.05;darkOpacity2=0.1;fillColor=#f9f7ed;strokeColor=#36393d;" vertex="1" parent="1">
          <mxGeometry x="660" y="520" width="140" height="100" as="geometry" />
        </mxCell>
        <mxCell id="ckUw0a-HAKTWJUbl3o7x-13" value="" style="shape=cube;whiteSpace=wrap;html=1;boundedLbl=1;backgroundOutline=1;darkOpacity=0.05;darkOpacity2=0.1;fillColor=#f9f7ed;strokeColor=#36393d;" vertex="1" parent="1">
          <mxGeometry x="480" y="630" width="140" height="100" as="geometry" />
        </mxCell>
        <mxCell id="ckUw0a-HAKTWJUbl3o7x-14" value="" style="shape=cube;whiteSpace=wrap;html=1;boundedLbl=1;backgroundOutline=1;darkOpacity=0.05;darkOpacity2=0.1;fillColor=#f9f7ed;strokeColor=#36393d;" vertex="1" parent="1">
          <mxGeometry x="650" y="980" width="140" height="100" as="geometry" />
        </mxCell>
        <mxCell id="ckUw0a-HAKTWJUbl3o7x-15" value="" style="shape=cube;whiteSpace=wrap;html=1;boundedLbl=1;backgroundOutline=1;darkOpacity=0.05;darkOpacity2=0.1;fillColor=#f9f7ed;strokeColor=#36393d;" vertex="1" parent="1">
          <mxGeometry x="410" y="820" width="90" height="110" as="geometry" />
        </mxCell>
        <mxCell id="ckUw0a-HAKTWJUbl3o7x-16" value="Door&amp;nbsp;&lt;br&gt;Open" style="text;html=1;strokeColor=none;fillColor=none;align=center;verticalAlign=middle;whiteSpace=wrap;rounded=0;" vertex="1" parent="1">
          <mxGeometry x="130" y="1000" width="60" height="30" as="geometry" />
        </mxCell>
        <mxCell id="ckUw0a-HAKTWJUbl3o7x-17" value="Denger" style="text;html=1;strokeColor=none;fillColor=none;align=center;verticalAlign=middle;whiteSpace=wrap;rounded=0;" vertex="1" parent="1">
          <mxGeometry x="130" y="295" width="60" height="30" as="geometry" />
        </mxCell>
        <mxCell id="ckUw0a-HAKTWJUbl3o7x-18" value="Denger" style="text;html=1;strokeColor=none;fillColor=none;align=center;verticalAlign=middle;whiteSpace=wrap;rounded=0;" vertex="1" parent="1">
          <mxGeometry x="550" y="215" width="60" height="30" as="geometry" />
        </mxCell>
        <mxCell id="ckUw0a-HAKTWJUbl3o7x-19" value="Denger" style="text;html=1;strokeColor=none;fillColor=none;align=center;verticalAlign=middle;whiteSpace=wrap;rounded=0;" vertex="1" parent="1">
          <mxGeometry x="550" y="95" width="60" height="30" as="geometry" />
        </mxCell>
        <mxCell id="ckUw0a-HAKTWJUbl3o7x-20" value="Houe" style="text;html=1;strokeColor=none;fillColor=none;align=center;verticalAlign=middle;whiteSpace=wrap;rounded=0;" vertex="1" parent="1">
          <mxGeometry x="560" y="410" width="60" height="30" as="geometry" />
        </mxCell>
        <mxCell id="ckUw0a-HAKTWJUbl3o7x-21" value="Houe" style="text;html=1;strokeColor=none;fillColor=none;align=center;verticalAlign=middle;whiteSpace=wrap;rounded=0;" vertex="1" parent="1">
          <mxGeometry x="710" y="570" width="60" height="30" as="geometry" />
        </mxCell>
        <mxCell id="ckUw0a-HAKTWJUbl3o7x-22" value="Houe" style="text;html=1;strokeColor=none;fillColor=none;align=center;verticalAlign=middle;whiteSpace=wrap;rounded=0;" vertex="1" parent="1">
          <mxGeometry x="530" y="680" width="60" height="30" as="geometry" />
        </mxCell>
        <mxCell id="ckUw0a-HAKTWJUbl3o7x-23" value="Houe" style="text;html=1;strokeColor=none;fillColor=none;align=center;verticalAlign=middle;whiteSpace=wrap;rounded=0;" vertex="1" parent="1">
          <mxGeometry x="440" y="870" width="60" height="30" as="geometry" />
        </mxCell>
        <mxCell id="ckUw0a-HAKTWJUbl3o7x-24" value="Houe" style="text;html=1;strokeColor=none;fillColor=none;align=center;verticalAlign=middle;whiteSpace=wrap;rounded=0;" vertex="1" parent="1">
          <mxGeometry x="700" y="1020" width="60" height="30" as="geometry" />
        </mxCell>
        <mxCell id="ckUw0a-HAKTWJUbl3o7x-25" value="" style="ellipse;whiteSpace=wrap;html=1;fillColor=#fad7ac;strokeColor=#b46504;" vertex="1" parent="1">
          <mxGeometry x="390" y="530" width="80" height="50" as="geometry" />
        </mxCell>
        <mxCell id="ckUw0a-HAKTWJUbl3o7x-26" value="" style="ellipse;whiteSpace=wrap;html=1;fillColor=#fad7ac;strokeColor=#b46504;" vertex="1" parent="1">
          <mxGeometry x="695" y="860" width="80" height="50" as="geometry" />
        </mxCell>
        <mxCell id="ckUw0a-HAKTWJUbl3o7x-29" value="" style="ellipse;shape=cloud;whiteSpace=wrap;html=1;fillColor=#cdeb8b;strokeColor=#36393d;" vertex="1" parent="1">
          <mxGeometry x="320" y="290" width="120" height="80" as="geometry" />
        </mxCell>
        <mxCell id="ckUw0a-HAKTWJUbl3o7x-30" value="" style="ellipse;shape=cloud;whiteSpace=wrap;html=1;fillColor=#cdeb8b;strokeColor=#36393d;" vertex="1" parent="1">
          <mxGeometry x="310" y="430" width="120" height="80" as="geometry" />
        </mxCell>
        <mxCell id="ckUw0a-HAKTWJUbl3o7x-31" value="" style="ellipse;shape=cloud;whiteSpace=wrap;html=1;fillColor=#cdeb8b;strokeColor=#36393d;" vertex="1" parent="1">
          <mxGeometry x="320" y="700" width="120" height="80" as="geometry" />
        </mxCell>
        <mxCell id="ckUw0a-HAKTWJUbl3o7x-32" value="" style="ellipse;shape=cloud;whiteSpace=wrap;html=1;fillColor=#cdeb8b;strokeColor=#36393d;" vertex="1" parent="1">
          <mxGeometry x="280" y="584.5" width="120" height="80" as="geometry" />
        </mxCell>
        <mxCell id="ckUw0a-HAKTWJUbl3o7x-33" value="" style="ellipse;shape=cloud;whiteSpace=wrap;html=1;fillColor=#cdeb8b;strokeColor=#36393d;" vertex="1" parent="1">
          <mxGeometry x="640" y="640" width="120" height="80" as="geometry" />
        </mxCell>
        <mxCell id="ckUw0a-HAKTWJUbl3o7x-34" value="" style="ellipse;shape=cloud;whiteSpace=wrap;html=1;fillColor=#cdeb8b;strokeColor=#36393d;" vertex="1" parent="1">
          <mxGeometry x="520" y="500" width="120" height="80" as="geometry" />
        </mxCell>
        <mxCell id="ckUw0a-HAKTWJUbl3o7x-35" value="" style="ellipse;shape=cloud;whiteSpace=wrap;html=1;fillColor=#cdeb8b;strokeColor=#36393d;" vertex="1" parent="1">
          <mxGeometry x="530" y="880" width="120" height="80" as="geometry" />
        </mxCell>
        <mxCell id="ckUw0a-HAKTWJUbl3o7x-36" value="" style="ellipse;shape=cloud;whiteSpace=wrap;html=1;fillColor=#cdeb8b;strokeColor=#36393d;" vertex="1" parent="1">
          <mxGeometry x="310" y="940" width="120" height="80" as="geometry" />
        </mxCell>
        <mxCell id="ckUw0a-HAKTWJUbl3o7x-37" value="" style="ellipse;shape=cloud;whiteSpace=wrap;html=1;fillColor=#cdeb8b;strokeColor=#36393d;" vertex="1" parent="1">
          <mxGeometry x="665" y="1080" width="120" height="80" as="geometry" />
        </mxCell>
        <mxCell id="ckUw0a-HAKTWJUbl3o7x-38" value="" style="ellipse;shape=cloud;whiteSpace=wrap;html=1;fillColor=#cdeb8b;strokeColor=#36393d;" vertex="1" parent="1">
          <mxGeometry x="430" y="1040" width="120" height="80" as="geometry" />
        </mxCell>
        <mxCell id="ckUw0a-HAKTWJUbl3o7x-39" value="" style="ellipse;shape=cloud;whiteSpace=wrap;html=1;fillColor=#cdeb8b;strokeColor=#36393d;" vertex="1" parent="1">
          <mxGeometry x="630" width="120" height="80" as="geometry" />
        </mxCell>
        <mxCell id="ckUw0a-HAKTWJUbl3o7x-40" value="Tree" style="text;html=1;strokeColor=none;fillColor=none;align=center;verticalAlign=middle;whiteSpace=wrap;rounded=0;" vertex="1" parent="1">
          <mxGeometry x="350" y="315" width="60" height="30" as="geometry" />
        </mxCell>
        <mxCell id="ckUw0a-HAKTWJUbl3o7x-41" value="Tree" style="text;html=1;strokeColor=none;fillColor=none;align=center;verticalAlign=middle;whiteSpace=wrap;rounded=0;" vertex="1" parent="1">
          <mxGeometry x="340" y="455" width="60" height="30" as="geometry" />
        </mxCell>
        <mxCell id="ckUw0a-HAKTWJUbl3o7x-42" value="Tree" style="text;html=1;strokeColor=none;fillColor=none;align=center;verticalAlign=middle;whiteSpace=wrap;rounded=0;" vertex="1" parent="1">
          <mxGeometry x="310" y="610" width="60" height="30" as="geometry" />
        </mxCell>
        <mxCell id="ckUw0a-HAKTWJUbl3o7x-43" value="Tree" style="text;html=1;strokeColor=none;fillColor=none;align=center;verticalAlign=middle;whiteSpace=wrap;rounded=0;" vertex="1" parent="1">
          <mxGeometry x="550" y="525" width="60" height="30" as="geometry" />
        </mxCell>
        <mxCell id="ckUw0a-HAKTWJUbl3o7x-44" value="Tree" style="text;html=1;strokeColor=none;fillColor=none;align=center;verticalAlign=middle;whiteSpace=wrap;rounded=0;" vertex="1" parent="1">
          <mxGeometry x="680" y="665" width="60" height="30" as="geometry" />
        </mxCell>
        <mxCell id="ckUw0a-HAKTWJUbl3o7x-45" value="Tree" style="text;html=1;strokeColor=none;fillColor=none;align=center;verticalAlign=middle;whiteSpace=wrap;rounded=0;" vertex="1" parent="1">
          <mxGeometry x="350" y="725" width="60" height="30" as="geometry" />
        </mxCell>
        <mxCell id="ckUw0a-HAKTWJUbl3o7x-46" value="Tree" style="text;html=1;strokeColor=none;fillColor=none;align=center;verticalAlign=middle;whiteSpace=wrap;rounded=0;" vertex="1" parent="1">
          <mxGeometry x="340" y="970" width="60" height="30" as="geometry" />
        </mxCell>
        <mxCell id="ckUw0a-HAKTWJUbl3o7x-47" value="Tree" style="text;html=1;strokeColor=none;fillColor=none;align=center;verticalAlign=middle;whiteSpace=wrap;rounded=0;" vertex="1" parent="1">
          <mxGeometry x="560" y="910" width="60" height="30" as="geometry" />
        </mxCell>
        <mxCell id="ckUw0a-HAKTWJUbl3o7x-48" value="Tree" style="text;html=1;strokeColor=none;fillColor=none;align=center;verticalAlign=middle;whiteSpace=wrap;rounded=0;" vertex="1" parent="1">
          <mxGeometry x="460" y="1065" width="60" height="30" as="geometry" />
        </mxCell>
        <mxCell id="ckUw0a-HAKTWJUbl3o7x-49" value="Tree" style="text;html=1;strokeColor=none;fillColor=none;align=center;verticalAlign=middle;whiteSpace=wrap;rounded=0;" vertex="1" parent="1">
          <mxGeometry x="695" y="1105" width="60" height="30" as="geometry" />
        </mxCell>
        <mxCell id="ckUw0a-HAKTWJUbl3o7x-50" value="Tree" style="text;html=1;strokeColor=none;fillColor=none;align=center;verticalAlign=middle;whiteSpace=wrap;rounded=0;" vertex="1" parent="1">
          <mxGeometry x="660" y="25" width="60" height="30" as="geometry" />
        </mxCell>
        <mxCell id="ckUw0a-HAKTWJUbl3o7x-51" value="Fire" style="text;html=1;strokeColor=none;fillColor=none;align=center;verticalAlign=middle;whiteSpace=wrap;rounded=0;" vertex="1" parent="1">
          <mxGeometry x="400" y="540" width="60" height="30" as="geometry" />
        </mxCell>
        <mxCell id="ckUw0a-HAKTWJUbl3o7x-52" value="Fire" style="text;html=1;strokeColor=none;fillColor=none;align=center;verticalAlign=middle;whiteSpace=wrap;rounded=0;" vertex="1" parent="1">
          <mxGeometry x="705" y="870" width="60" height="30" as="geometry" />
        </mxCell>
        <mxCell id="ckUw0a-HAKTWJUbl3o7x-53" value="Pool" style="text;html=1;strokeColor=none;fillColor=none;align=center;verticalAlign=middle;whiteSpace=wrap;rounded=0;" vertex="1" parent="1">
          <mxGeometry x="705" y="305" width="60" height="30" as="geometry" />
        </mxCell>
        <mxCell id="ckUw0a-HAKTWJUbl3o7x-54" value="" style="shape=singleArrow;whiteSpace=wrap;html=1;arrowWidth=0.4;arrowSize=0.4;fillColor=#f8cecc;strokeColor=#b85450;" vertex="1" parent="1">
          <mxGeometry x="120" y="155" width="80" height="60" as="geometry" />
        </mxCell>
      </root>
    </mxGraphModel>
  </diagram>
</mxfile>
